<svg version="1.1" viewBox="0.0 0.0 768.0 768.0" fill="none" stroke="none" stroke-linecap="square" stroke-miterlimit="10" xmlns:xlink="http://www.w3.org/1999/xlink" xmlns="http://www.w3.org/2000/svg"><clipPath id="p.0"><path d="m0 0l768.0 0l0 768.0l-768.0 0l0 -768.0z" clip-rule="nonzero"/></clipPath><g clip-path="url(#p.0)"><path fill="#000000" fill-opacity="0.0" d="m0 0l768.0 0l0 768.0l-768.0 0z" fill-rule="evenodd"/><path fill="#000000" fill-opacity="0.0" d="m384.00967 0l0 768.0" fill-rule="evenodd"/><path stroke="#000000" stroke-width="4.0" stroke-linejoin="round" stroke-linecap="butt" stroke-dasharray="4.0,12.0" d="m384.00967 24.0l0 720.0" fill-rule="evenodd"/><path fill="#000000" stroke="#000000" stroke-width="4.0" stroke-linecap="butt" d="m390.6166 24.0l-6.6069336 -18.152391l-6.6069336 18.152391z" fill-rule="evenodd"/><path fill="#000000" stroke="#000000" stroke-width="4.0" stroke-linecap="butt" d="m377.40274 744.0l6.6069336 18.152405l6.6069336 -18.152405z" fill-rule="evenodd"/><path fill="#000000" fill-opacity="0.0" d="m0.013110236 384.00305l768.0 0" fill-rule="evenodd"/><path stroke="#000000" stroke-width="4.0" stroke-linejoin="round" stroke-linecap="butt" stroke-dasharray="4.0,12.0" d="m24.013111 384.00308l720.0 0" fill-rule="evenodd"/><path fill="#000000" stroke="#000000" stroke-width="4.0" stroke-linecap="butt" d="m24.01311 377.39615l-18.15239 6.6069336l18.15239 6.6069336z" fill-rule="evenodd"/><path fill="#000000" stroke="#000000" stroke-width="4.0" stroke-linecap="butt" d="m744.0131 390.61002l18.152405 -6.6069336l-18.152405 -6.6069336z" fill-rule="evenodd"/><path fill="#000000" fill-opacity="0.0" d="m409.84515 410.68765l189.44879 0l0 61.417328l-189.44879 0z" fill-rule="evenodd"/><path fill="#000000" d="m422.06314 452.96765l0 -24.8125l3.046875 0l0 8.90625q2.140625 -2.46875 5.390625 -2.46875q1.984375 0 3.453125 0.796875q1.484375 0.78125 2.109375 2.171875q0.640625 1.375 0.640625 4.015625l0 11.390625l-3.046875 0l0 -11.390625q0 -2.28125 -1.0 -3.3125q-0.984375 -1.046875 -2.796875 -1.046875q-1.34375 0 -2.546875 0.703125q-1.1875 0.703125 -1.703125 1.90625q-0.5 1.1875 -0.5 3.3125l0 9.828125l-3.046875 0zm31.008514 -2.21875q-1.703125 1.4375 -3.265625 2.03125q-1.5625 0.59375 -3.359375 0.59375q-2.953125 0 -4.546875 -1.4375q-1.59375 -1.453125 -1.59375 -3.703125q0 -1.328125 0.59375 -2.40625q0.609375 -1.09375 1.578125 -1.75q0.984375 -0.671875 2.203125 -1.015625q0.890625 -0.234375 2.703125 -0.453125q3.6875 -0.4375 5.421875 -1.046875q0.03125 -0.625 0.03125 -0.796875q0 -1.859375 -0.875 -2.625q-1.15625 -1.03125 -3.46875 -1.03125q-2.140625 0 -3.171875 0.765625q-1.015625 0.75 -1.515625 2.65625l-2.96875 -0.40625q0.40625 -1.90625 1.328125 -3.078125q0.9375 -1.1875 2.6875 -1.8125q1.765625 -0.640625 4.078125 -0.640625q2.3125 0 3.75 0.546875q1.4375 0.53125 2.109375 1.359375q0.6875 0.8125 0.953125 2.0625q0.15625 0.78125 0.15625 2.8125l0 4.0625q0 4.25 0.1875 5.375q0.203125 1.125 0.765625 2.15625l-3.171875 0q-0.484375 -0.953125 -0.609375 -2.21875zm-0.265625 -6.796875q-1.65625 0.671875 -4.96875 1.140625q-1.875 0.28125 -2.65625 0.625q-0.78125 0.328125 -1.203125 0.984375q-0.421875 0.640625 -0.421875 1.4375q0 1.21875 0.921875 2.03125q0.921875 0.8125 2.703125 0.8125q1.75 0 3.125 -0.765625q1.375 -0.765625 2.015625 -2.109375q0.484375 -1.03125 0.484375 -3.046875l0 -1.109375zm7.74292 9.015625l0 -24.8125l3.046875 0l0 24.8125l-3.046875 0zm8.496368 0l0 -15.609375l-2.6875 0l0 -2.359375l2.6875 0l0 -1.921875q0 -1.796875 0.3125 -2.6875q0.453125 -1.1875 1.546875 -1.921875q1.109375 -0.734375 3.109375 -0.734375q1.28125 0 2.84375 0.3125l-0.453125 2.65625q-0.953125 -0.171875 -1.796875 -0.171875q-1.390625 0 -1.96875 0.59375q-0.5625 0.59375 -0.5625 2.21875l0 1.65625l3.5 0l0 2.359375l-3.5 0l0 15.609375l-3.03125 0zm6.0817566 6.890625l0 -2.203125l20.1875 0l0 2.203125l-20.1875 0zm22.02414 -6.890625l0 -24.8125l3.046875 0l0 24.8125l-3.046875 0zm20.074493 -5.78125l3.140625 0.390625q-0.75 2.75 -2.765625 4.28125q-2.0 1.515625 -5.140625 1.515625q-3.9374695 0 -6.2499695 -2.421875q-2.3125 -2.4375 -2.3125 -6.8125q0 -4.546875 2.328125 -7.046875q2.34375 -2.5 6.0624695 -2.5q3.609375 0 5.890625 2.453125q2.28125 2.453125 2.28125 6.90625q0 0.265625 -0.015625 0.8125l-13.3905945 0q0.15625 2.953125 1.65625 4.53125q1.515625 1.578125 3.7655945 1.578125q1.6875 0 2.859375 -0.875q1.1875 -0.890625 1.890625 -2.8125zm-10.0155945 -4.9375l10.0468445 0q-0.203125 -2.265625 -1.15625 -3.390625q-1.453125 -1.765625 -3.765625 -1.765625q-2.1093445 0 -3.5468445 1.40625q-1.421875 1.40625 -1.578125 3.75zm16.977264 10.71875l0 -17.96875l2.75 0l0 2.546875q1.96875 -2.953125 5.71875 -2.953125q1.625 0 2.984375 0.59375q1.359375 0.578125 2.03125 1.53125q0.6875 0.9375 0.953125 2.234375q0.171875 0.84375 0.171875 2.96875l0 11.046875l-3.046875 0l0 -10.9375q0 -1.859375 -0.359375 -2.78125q-0.359375 -0.921875 -1.265625 -1.46875q-0.890625 -0.546875 -2.109375 -0.546875q-1.953125 0 -3.375 1.234375q-1.40625 1.234375 -1.40625 4.6875l0 9.8125l-3.046875 0zm18.71167 1.484375l2.96875 0.4375q0.1875 1.375 1.03125 2.0q1.140625 0.84375 3.09375 0.84375q2.125 0 3.265625 -0.84375q1.15625 -0.84375 1.5625 -2.359375q0.234375 -0.9375 0.21875 -3.921875q-2.0 2.359375 -4.96875 2.359375q-3.71875 0 -5.75 -2.671875q-2.03125 -2.671875 -2.03125 -6.421875q0 -2.5625 0.9375 -4.734375q0.9375 -2.1875 2.703125 -3.359375q1.765625 -1.1875 4.15625 -1.1875q3.171875 0 5.234375 2.5625l0 -2.15625l2.8125 0l0 15.53125q0 4.203125 -0.859375 5.953125q-0.84375 1.75 -2.703125 2.765625q-1.84375 1.015625 -4.5625 1.015625q-3.203125 0 -5.1875 -1.453125q-1.984375 -1.4375 -1.921875 -4.359375zm2.53125 -10.796875q0 3.546875 1.40625 5.171875q1.40625 1.625 3.515625 1.625q2.09375 0 3.515625 -1.609375q1.421875 -1.625 1.421875 -5.078125q0 -3.296875 -1.46875 -4.96875q-1.453125 -1.6875 -3.515625 -1.6875q-2.03125 0 -3.453125 1.65625q-1.421875 1.640625 -1.421875 4.890625zm23.96167 6.59375l0.4375 2.6875q-1.28125 0.265625 -2.296875 0.265625q-1.65625 0 -2.578125 -0.515625q-0.90625 -0.53125 -1.28125 -1.375q-0.375 -0.859375 -0.375 -3.609375l0 -10.34375l-2.234375 0l0 -2.359375l2.234375 0l0 -4.453125l3.03125 -1.828125l0 6.28125l3.0625 0l0 2.359375l-3.0625 0l0 10.515625q0 1.296875 0.15625 1.671875q0.15625 0.375 0.515625 0.59375q0.375 0.21875 1.046875 0.21875q0.515625 0 1.34375 -0.109375zm2.972351 2.71875l0 -24.8125l3.046875 0l0 8.90625q2.140625 -2.46875 5.390625 -2.46875q1.984375 0 3.453125 0.796875q1.484375 0.78125 2.109375 2.171875q0.640625 1.375 0.640625 4.015625l0 11.390625l-3.046875 0l0 -11.390625q0 -2.28125 -1.0 -3.3125q-0.984375 -1.046875 -2.796875 -1.046875q-1.34375 0 -2.546875 0.703125q-1.1875 0.703125 -1.703125 1.90625q-0.5 1.1875 -0.5 3.3125l0 9.828125l-3.046875 0z" fill-rule="nonzero"/><path fill="#000000" fill-opacity="0.0" d="m388.09723 410.68765l214.67712 0" fill-rule="evenodd"/><path stroke="#000000" stroke-width="4.0" stroke-linejoin="round" stroke-linecap="butt" stroke-dasharray="16.0,12.0" d="m401.80557 410.68765l187.26047 0" fill-rule="evenodd"/><path fill="#000000" stroke="#000000" stroke-width="4.0" stroke-linecap="butt" d="m401.80557 410.68765l4.498352 -4.4983215l-12.35907 4.4983215l12.35907 4.498352z" fill-rule="evenodd"/><path fill="#000000" stroke="#000000" stroke-width="4.0" stroke-linecap="butt" d="m589.06604 410.68765l-4.498291 4.498352l12.35907 -4.498352l-12.35907 -4.4983215z" fill-rule="evenodd"/><path fill="#000000" fill-opacity="0.0" d="m256.89502 380.92914l132.15747 0l0 103.433075l-132.15747 0z" fill-rule="evenodd"/><path fill="#000000" d="m281.74887 414.22476q0 -5.0 2.765625 -7.390625q2.328125 -2.0 5.65625 -2.0q3.703125 0 6.046875 2.4375q2.359375 2.421875 2.359375 6.703125q0 3.46875 -1.046875 5.453125q-1.03125 1.984375 -3.015625 3.09375q-1.984375 1.09375 -4.34375 1.09375q-3.78125 0 -6.109375 -2.421875q-2.3125 -2.421875 -2.3125 -6.96875zm3.125 0q0 3.453125 1.5 5.171875q1.515625 1.71875 3.796875 1.71875q2.265625 0 3.765625 -1.71875q1.515625 -1.734375 1.515625 -5.28125q0 -3.328125 -1.515625 -5.046875q-1.515625 -1.71875 -3.765625 -1.71875q-2.28125 0 -3.796875 1.71875q-1.5 1.703125 -1.5 5.15625zm17.24289 8.984375l0 -17.96875l2.734375 0l0 2.71875q1.0625 -1.90625 1.9375 -2.515625q0.890625 -0.609375 1.96875 -0.609375q1.53125 0 3.125 0.984375l-1.046875 2.828125q-1.125 -0.671875 -2.234375 -0.671875q-1.0 0 -1.796875 0.609375q-0.796875 0.59375 -1.140625 1.65625q-0.5 1.625 -0.5 3.5625l0 9.40625l-3.046875 0zm11.587677 -21.3125l0 -3.5l3.046875 0l0 3.5l-3.046875 0zm0 21.3125l0 -17.96875l3.046875 0l0 17.96875l-3.046875 0zm7.121399 1.484375l2.96875 0.4375q0.1875 1.375 1.03125 2.0q1.140625 0.84375 3.09375 0.84375q2.125 0 3.265625 -0.84375q1.15625 -0.84375 1.5625 -2.359375q0.234375 -0.9375 0.21875 -3.921875q-2.0 2.359375 -4.96875 2.359375q-3.71875 0 -5.75 -2.671875q-2.03125 -2.671875 -2.03125 -6.421875q0 -2.5625 0.9375 -4.734375q0.9375 -2.1875 2.703125 -3.359375q1.765625 -1.1875 4.15625 -1.1875q3.171875 0 5.234375 2.5625l0 -2.15625l2.8125 0l0 15.53125q0 4.203125 -0.859375 5.953125q-0.84375 1.75 -2.703125 2.765625q-1.84375 1.015625 -4.5625 1.015625q-3.203125 0 -5.1875 -1.453125q-1.984375 -1.4375 -1.921875 -4.359375zm2.53125 -10.796875q0 3.546875 1.40625 5.171875q1.40625 1.625 3.515625 1.625q2.09375 0 3.515625 -1.609375q1.421875 -1.625 1.421875 -5.078125q0 -3.296875 -1.46875 -4.96875q-1.453125 -1.6875 -3.515625 -1.6875q-2.03125 0 -3.453125 1.65625q-1.421875 1.640625 -1.421875 4.890625zm17.321014 -12.0l0 -3.5l3.046875 0l0 3.5l-3.046875 0zm0 21.3125l0 -17.96875l3.046875 0l0 17.96875l-3.046875 0zm7.683899 0l0 -17.96875l2.75 0l0 2.546875q1.96875 -2.953125 5.71875 -2.953125q1.625 0 2.984375 0.59375q1.359375 0.578125 2.03125 1.53125q0.6875 0.9375 0.953125 2.234375q0.171875 0.84375 0.171875 2.96875l0 11.046875l-3.046875 0l0 -10.9375q0 -1.859375 -0.359375 -2.78125q-0.359375 -0.921875 -1.265625 -1.46875q-0.890625 -0.546875 -2.109375 -0.546875q-1.953125 0 -3.375 1.234375q-1.40625 1.234375 -1.40625 4.6875l0 9.8125l-3.046875 0z" fill-rule="nonzero"/><path fill="#000000" d="m278.1342 472.10602q-2.53125 -3.1875 -4.28125 -7.453125q-1.734375 -4.265625 -1.734375 -8.828125q0 -4.03125 1.3125 -7.71875q1.515625 -4.28125 4.703125 -8.53125l2.171875 0q-2.046875 3.53125 -2.703125 5.03125q-1.03125 2.328125 -1.625 4.875q-0.71875 3.15625 -0.71875 6.359375q0 8.140625 5.046875 16.265625l-2.171875 0zm9.025177 -7.296875l-5.5 -17.96875l3.15625 0l2.859375 10.375l1.0625 3.859375q0.078125 -0.296875 0.9375 -3.71875l2.859375 -10.515625l3.125 0l2.6875 10.421875l0.90625 3.4375l1.03125 -3.46875l3.078125 -10.390625l2.953125 0l-5.609375 17.96875l-3.171875 0l-2.859375 -10.765625l-0.6875 -3.0625l-3.640625 13.828125l-3.1875 0zm20.590149 -8.984375q0 -5.0 2.765625 -7.390625q2.328125 -2.0 5.65625 -2.0q3.703125 0 6.046875 2.4375q2.359375 2.421875 2.359375 6.703125q0 3.46875 -1.046875 5.453125q-1.03125 1.984375 -3.015625 3.09375q-1.984375 1.09375 -4.34375 1.09375q-3.78125 0 -6.109375 -2.421875q-2.3125 -2.421875 -2.3125 -6.96875zm3.125 0q0 3.453125 1.5 5.171875q1.515625 1.71875 3.796875 1.71875q2.265625 0 3.765625 -1.71875q1.515625 -1.734375 1.515625 -5.28125q0 -3.328125 -1.515625 -5.046875q-1.515625 -1.71875 -3.765625 -1.71875q-2.28125 0 -3.796875 1.71875q-1.5 1.703125 -1.5 5.15625zm17.24289 8.984375l0 -17.96875l2.734375 0l0 2.71875q1.0625 -1.90625 1.9375 -2.515625q0.890625 -0.609375 1.96875 -0.609375q1.53125 0 3.125 0.984375l-1.046875 2.828125q-1.125 -0.671875 -2.234375 -0.671875q-1.0 0 -1.796875 0.609375q-0.796875 0.59375 -1.140625 1.65625q-0.5 1.625 -0.5 3.5625l0 9.40625l-3.046875 0zm11.509552 0l0 -24.8125l3.046875 0l0 24.8125l-3.046875 0zm19.418274 0l0 -2.265625q-1.703125 2.671875 -5.015625 2.671875q-2.15625 0 -3.953125 -1.1875q-1.796875 -1.1875 -2.796875 -3.296875q-0.984375 -2.125 -0.984375 -4.890625q0 -2.6875 0.890625 -4.875q0.90625 -2.203125 2.6875 -3.359375q1.796875 -1.171875 4.015625 -1.171875q1.625 0 2.890625 0.6875q1.28125 0.6875 2.0625 1.78125l0 -8.90625l3.03125 0l0 24.8125l-2.828125 0zm-9.625 -8.96875q0 3.453125 1.453125 5.171875q1.453125 1.703125 3.4375 1.703125q2.0 0 3.390625 -1.625q1.40625 -1.640625 1.40625 -5.0q0 -3.6875 -1.421875 -5.40625q-1.421875 -1.734375 -3.515625 -1.734375q-2.015625 0 -3.390625 1.65625q-1.359375 1.65625 -1.359375 5.234375zm19.24289 16.265625l-2.1875 0q5.0625 -8.125 5.0625 -16.265625q0 -3.1875 -0.71875 -6.3125q-0.578125 -2.53125 -1.609375 -4.875q-0.671875 -1.515625 -2.734375 -5.078125l2.1875 0q3.1875 4.25 4.703125 8.53125q1.296875 3.6875 1.296875 7.71875q0 4.5625 -1.75 8.828125q-1.75 4.265625 -4.25 7.453125z" fill-rule="nonzero"/><path fill="#000000" d="m374.65607 383.17322l0 0c0 -5.3053894 4.300873 -9.606293 9.606293 -9.606293l0 0c2.54776 0 4.99115 1.012085 6.792694 2.8136292c1.8015137 1.8015137 2.8135986 4.244934 2.8135986 6.7926636l0 0c0 5.30542 -4.300873 9.606323 -9.606293 9.606323l0 0c-5.30542 0 -9.606293 -4.3009033 -9.606293 -9.606323z" fill-rule="evenodd"/><path stroke="#000000" stroke-width="1.0" stroke-linejoin="round" stroke-linecap="butt" d="m374.65607 383.17322l0 0c0 -5.3053894 4.300873 -9.606293 9.606293 -9.606293l0 0c2.54776 0 4.99115 1.012085 6.792694 2.8136292c1.8015137 1.8015137 2.8135986 4.244934 2.8135986 6.7926636l0 0c0 5.30542 -4.300873 9.606323 -9.606293 9.606323l0 0c-5.30542 0 -9.606293 -4.3009033 -9.606293 -9.606323z" fill-rule="evenodd"/><path fill="#000000" fill-opacity="0.0" d="m642.8163 380.92914l132.15747 0l0 103.433075l-132.15747 0z" fill-rule="evenodd"/><path fill="#000000" d="m663.89557 423.20914l6.5625 -9.34375l-6.0625 -8.625l3.796875 0l2.765625 4.21875q0.78125 1.1875 1.25 2.0q0.75 -1.109375 1.375 -1.96875l3.03125 -4.25l3.625 0l-6.203125 8.453125l6.6875 9.515625l-3.75 0l-3.6875 -5.578125l-0.96875 -1.515625l-4.734375 7.09375l-3.6875 0zm18.171875 -7.453125l0 -3.0625l9.359375 0l0 3.0625l-9.359375 0zm24.462708 5.234375q-1.703125 1.4375 -3.265625 2.03125q-1.5625 0.59375 -3.359375 0.59375q-2.953125 0 -4.546875 -1.4375q-1.59375 -1.453125 -1.59375 -3.703125q0 -1.328125 0.59375 -2.40625q0.609375 -1.09375 1.578125 -1.75q0.984375 -0.671875 2.203125 -1.015625q0.890625 -0.234375 2.703125 -0.453125q3.6875 -0.4375 5.421875 -1.046875q0.03125 -0.625 0.03125 -0.796875q0 -1.859375 -0.875 -2.625q-1.15625 -1.03125 -3.46875 -1.03125q-2.140625 0 -3.171875 0.765625q-1.015625 0.75 -1.515625 2.65625l-2.96875 -0.40625q0.40625 -1.90625 1.328125 -3.078125q0.9375 -1.1875 2.6875 -1.8125q1.765625 -0.640625 4.078125 -0.640625q2.3125 0 3.75 0.546875q1.4375 0.53125 2.109375 1.359375q0.6875 0.8125 0.953125 2.0625q0.15625 0.78125 0.15625 2.8125l0 4.0625q0 4.25 0.1875 5.375q0.203125 1.125 0.765625 2.15625l-3.171875 0q-0.484375 -0.953125 -0.609375 -2.21875zm-0.265625 -6.796875q-1.65625 0.671875 -4.96875 1.140625q-1.875 0.28125 -2.65625 0.625q-0.78125 0.328125 -1.203125 0.984375q-0.421875 0.640625 -0.421875 1.4375q0 1.21875 0.921875 2.03125q0.921875 0.8125 2.703125 0.8125q1.75 0 3.125 -0.765625q1.375 -0.765625 2.015625 -2.109375q0.484375 -1.03125 0.484375 -3.046875l0 -1.109375zm5.77417 9.015625l6.5625 -9.34375l-6.0625 -8.625l3.796875 0l2.765625 4.21875q0.78125 1.1875 1.25 2.0q0.75 -1.109375 1.375 -1.96875l3.03125 -4.25l3.625 0l-6.203125 8.453125l6.6875 9.515625l-3.75 0l-3.6875 -5.578125l-0.96875 -1.515625l-4.734375 7.09375l-3.6875 0zm19.375 -21.3125l0 -3.5l3.046875 0l0 3.5l-3.046875 0zm0 21.3125l0 -17.96875l3.046875 0l0 17.96875l-3.046875 0zm6.465088 -5.359375l3.015625 -0.484375q0.25 1.8125 1.40625 2.78125q1.171875 0.96875 3.25 0.96875q2.09375 0 3.109375 -0.859375q1.015625 -0.859375 1.015625 -2.0q0 -1.03125 -0.890625 -1.625q-0.625 -0.40625 -3.125 -1.03125q-3.34375 -0.859375 -4.640625 -1.46875q-1.296875 -0.625 -1.96875 -1.703125q-0.65625 -1.09375 -0.65625 -2.421875q0 -1.203125 0.546875 -2.21875q0.546875 -1.03125 1.5 -1.703125q0.703125 -0.53125 1.921875 -0.890625q1.234375 -0.359375 2.640625 -0.359375q2.125 0 3.71875 0.609375q1.59375 0.609375 2.359375 1.65625q0.765625 1.03125 1.046875 2.78125l-2.96875 0.40625q-0.203125 -1.390625 -1.1875 -2.171875q-0.96875 -0.78125 -2.75 -0.78125q-2.09375 0 -3.0 0.703125q-0.890625 0.6875 -0.890625 1.625q0 0.578125 0.375 1.0625q0.375 0.484375 1.171875 0.8125q0.453125 0.171875 2.6875 0.78125q3.234375 0.859375 4.5 1.40625q1.28125 0.546875 2.0 1.59375q0.734375 1.046875 0.734375 2.609375q0 1.53125 -0.890625 2.875q-0.875 1.34375 -2.5625 2.078125q-1.671875 0.734375 -3.78125 0.734375q-3.5 0 -5.34375 -1.453125q-1.828125 -1.453125 -2.34375 -4.3125z" fill-rule="nonzero"/><path fill="#000000" d="m664.0555 472.10602q-2.53125 -3.1875 -4.28125 -7.453125q-1.734375 -4.265625 -1.734375 -8.828125q0 -4.03125 1.3125 -7.71875q1.515625 -4.28125 4.703125 -8.53125l2.171875 0q-2.046875 3.53125 -2.703125 5.03125q-1.03125 2.328125 -1.625 4.875q-0.71875 3.15625 -0.71875 6.359375q0 8.140625 5.046875 16.265625l-2.171875 0zm9.0251465 -7.296875l-5.5 -17.96875l3.15625 0l2.859375 10.375l1.0625 3.859375q0.078125 -0.296875 0.9375 -3.71875l2.859375 -10.515625l3.125 0l2.6875 10.421875l0.90625 3.4375l1.03125 -3.46875l3.078125 -10.390625l2.953125 0l-5.609375 17.96875l-3.171875 0l-2.859375 -10.765625l-0.6875 -3.0625l-3.640625 13.828125l-3.1875 0zm20.590149 -8.984375q0 -5.0 2.765625 -7.390625q2.328125 -2.0 5.65625 -2.0q3.703125 0 6.046875 2.4375q2.359375 2.421875 2.359375 6.703125q0 3.46875 -1.046875 5.453125q-1.03125 1.984375 -3.015625 3.09375q-1.984375 1.09375 -4.34375 1.09375q-3.78125 0 -6.109375 -2.421875q-2.3125 -2.421875 -2.3125 -6.96875zm3.125 0q0 3.453125 1.5 5.171875q1.515625 1.71875 3.796875 1.71875q2.265625 0 3.765625 -1.71875q1.515625 -1.734375 1.515625 -5.28125q0 -3.328125 -1.515625 -5.046875q-1.515625 -1.71875 -3.765625 -1.71875q-2.28125 0 -3.796875 1.71875q-1.5 1.703125 -1.5 5.15625zm17.24292 8.984375l0 -17.96875l2.734375 0l0 2.71875q1.0625 -1.90625 1.9375 -2.515625q0.890625 -0.609375 1.96875 -0.609375q1.53125 0 3.125 0.984375l-1.046875 2.828125q-1.125 -0.671875 -2.234375 -0.671875q-1.0 0 -1.796875 0.609375q-0.796875 0.59375 -1.140625 1.65625q-0.5 1.625 -0.5 3.5625l0 9.40625l-3.046875 0zm11.5095215 0l0 -24.8125l3.046875 0l0 24.8125l-3.046875 0zm19.418274 0l0 -2.265625q-1.703125 2.671875 -5.015625 2.671875q-2.15625 0 -3.953125 -1.1875q-1.796875 -1.1875 -2.796875 -3.296875q-0.984375 -2.125 -0.984375 -4.890625q0 -2.6875 0.890625 -4.875q0.90625 -2.203125 2.6875 -3.359375q1.796875 -1.171875 4.015625 -1.171875q1.625 0 2.890625 0.6875q1.28125 0.6875 2.0625 1.78125l0 -8.90625l3.03125 0l0 24.8125l-2.828125 0zm-9.625 -8.96875q0 3.453125 1.453125 5.171875q1.453125 1.703125 3.4375 1.703125q2.0 0 3.390625 -1.625q1.40625 -1.640625 1.40625 -5.0q0 -3.6875 -1.421875 -5.40625q-1.421875 -1.734375 -3.515625 -1.734375q-2.015625 0 -3.390625 1.65625q-1.359375 1.65625 -1.359375 5.234375zm19.24292 16.265625l-2.1875 0q5.0625 -8.125 5.0625 -16.265625q0 -3.1875 -0.71875 -6.3125q-0.578125 -2.53125 -1.609375 -4.875q-0.671875 -1.515625 -2.734375 -5.078125l2.1875 0q3.1875 4.25 4.703125 8.53125q1.296875 3.6875 1.296875 7.71875q0 4.5625 -1.75 8.828125q-1.75 4.265625 -4.25 7.453125z" fill-rule="nonzero"/><path fill="#000000" fill-opacity="0.0" d="m388.73752 4.929134l132.1575 0l0 103.433075l-132.1575 0z" fill-rule="evenodd"/><path fill="#000000" d="m411.7231 54.13101l-0.34375 -2.859375q1.0 0.265625 1.734375 0.265625q1.015625 0 1.625 -0.34375q0.609375 -0.328125 1.0 -0.9375q0.296875 -0.453125 0.9375 -2.265625q0.078125 -0.25 0.265625 -0.75l-6.8125 -18.0l3.28125 0l3.734375 10.40625q0.734375 1.984375 1.3125 4.15625q0.515625 -2.09375 1.25 -4.09375l3.84375 -10.46875l3.046875 0l-6.84375 18.265625q-1.09375 2.96875 -1.703125 4.078125q-0.8125 1.515625 -1.875 2.21875q-1.046875 0.703125 -2.5 0.703125q-0.875 0 -1.953125 -0.375zm16.265625 -14.375l0 -3.0625l9.359375 0l0 3.0625l-9.359375 0zm24.462677 5.234375q-1.703125 1.4375 -3.265625 2.03125q-1.5625 0.59375 -3.359375 0.59375q-2.953125 0 -4.546875 -1.4375q-1.59375 -1.453125 -1.59375 -3.703125q0 -1.328125 0.59375 -2.40625q0.609375 -1.09375 1.578125 -1.75q0.984375 -0.671875 2.203125 -1.015625q0.890625 -0.234375 2.703125 -0.453125q3.6875 -0.4375 5.421875 -1.046875q0.03125 -0.625 0.03125 -0.796875q0 -1.859375 -0.875 -2.625q-1.15625 -1.03125 -3.46875 -1.03125q-2.140625 0 -3.171875 0.765625q-1.015625 0.75 -1.515625 2.65625l-2.96875 -0.40625q0.40625 -1.90625 1.328125 -3.078125q0.9375 -1.1875 2.6875 -1.8125q1.765625 -0.640625 4.078125 -0.640625q2.3125 0 3.75 0.546875q1.4374695 0.53125 2.1093445 1.359375q0.6875 0.8125 0.953125 2.0625q0.15625 0.78125 0.15625 2.8125l0 4.0625q0 4.25 0.1875 5.375q0.203125 1.125 0.765625 2.15625l-3.171875 0q-0.48434448 -0.953125 -0.6093445 -2.21875zm-0.265625 -6.796875q-1.65625 0.671875 -4.96875 1.140625q-1.875 0.28125 -2.65625 0.625q-0.78125 0.328125 -1.203125 0.984375q-0.421875 0.640625 -0.421875 1.4375q0 1.21875 0.921875 2.03125q0.921875 0.8125 2.703125 0.8125q1.75 0 3.125 -0.765625q1.375 -0.765625 2.015625 -2.109375q0.484375 -1.03125 0.484375 -3.046875l0 -1.109375zm5.7741394 9.015625l6.5625 -9.34375l-6.0625 -8.625l3.796875 0l2.765625 4.21875q0.78125 1.1875 1.25 2.0q0.75 -1.109375 1.375 -1.96875l3.03125 -4.25l3.625 0l-6.203125 8.453125l6.6875 9.515625l-3.75 0l-3.6875 -5.578125l-0.96875 -1.515625l-4.734375 7.09375l-3.6875 0zm19.375 -21.3125l0 -3.5l3.046875 0l0 3.5l-3.046875 0zm0 21.3125l0 -17.96875l3.046875 0l0 17.96875l-3.046875 0zm6.4651184 -5.359375l3.015625 -0.484375q0.25 1.8125 1.40625 2.78125q1.171875 0.96875 3.25 0.96875q2.09375 0 3.109375 -0.859375q1.015625 -0.859375 1.015625 -2.0q0 -1.03125 -0.890625 -1.625q-0.625 -0.40625 -3.125 -1.03125q-3.34375 -0.859375 -4.640625 -1.46875q-1.296875 -0.625 -1.96875 -1.703125q-0.65625 -1.09375 -0.65625 -2.421875q0 -1.203125 0.546875 -2.21875q0.546875 -1.03125 1.5 -1.703125q0.703125 -0.53125 1.921875 -0.890625q1.234375 -0.359375 2.640625 -0.359375q2.125 0 3.71875 0.609375q1.59375 0.609375 2.359375 1.65625q0.765625 1.03125 1.046875 2.78125l-2.96875 0.40625q-0.203125 -1.390625 -1.1875 -2.171875q-0.96875 -0.78125 -2.75 -0.78125q-2.09375 0 -3.0 0.703125q-0.890625 0.6875 -0.890625 1.625q0 0.578125 0.375 1.0625q0.375 0.484375 1.171875 0.8125q0.453125 0.171875 2.6875 0.78125q3.234375 0.859375 4.5 1.40625q1.28125 0.546875 2.0 1.59375q0.734375 1.046875 0.734375 2.609375q0 1.53125 -0.890625 2.875q-0.875 1.34375 -2.5625 2.078125q-1.671875 0.734375 -3.78125 0.734375q-3.5 0 -5.34375 -1.453125q-1.828125 -1.453125 -2.34375 -4.3125z" fill-rule="nonzero"/><path fill="#000000" d="m409.9767 96.106q-2.53125 -3.1875 -4.28125 -7.453125q-1.734375 -4.265625 -1.734375 -8.828125q0 -4.03125 1.3125 -7.71875q1.515625 -4.28125 4.703125 -8.531246l2.171875 0q-2.046875 3.5312462 -2.703125 5.031246q-1.03125 2.328125 -1.625 4.875q-0.71875 3.15625 -0.71875 6.359375q0 8.140625 5.046875 16.265625l-2.171875 0zm9.025177 -7.296875l-5.5 -17.96875l3.15625 0l2.859375 10.375l1.0625 3.859375q0.078125 -0.296875 0.9375 -3.71875l2.859375 -10.515625l3.125 0l2.6875 10.421875l0.90625 3.4375l1.03125 -3.46875l3.078125 -10.390625l2.953125 0l-5.609375 17.96875l-3.171875 0l-2.859375 -10.765625l-0.6875 -3.0625l-3.640625 13.828125l-3.1875 0zm20.590149 -8.984375q0 -5.0 2.765625 -7.390625q2.328125 -2.0 5.65625 -2.0q3.703125 0 6.0468445 2.4375q2.359375 2.421875 2.359375 6.703125q0 3.46875 -1.046875 5.453125q-1.03125 1.984375 -3.0155945 3.09375q-1.984375 1.09375 -4.34375 1.09375q-3.78125 0 -6.109375 -2.421875q-2.3125 -2.421875 -2.3125 -6.96875zm3.125 0q0 3.453125 1.5 5.171875q1.515625 1.71875 3.796875 1.71875q2.265625 0 3.765625 -1.71875q1.5155945 -1.734375 1.5155945 -5.28125q0 -3.328125 -1.5155945 -5.046875q-1.515625 -1.71875 -3.765625 -1.71875q-2.28125 0 -3.796875 1.71875q-1.5 1.703125 -1.5 5.15625zm17.24289 8.984375l0 -17.96875l2.734375 0l0 2.71875q1.0625 -1.90625 1.9375 -2.515625q0.890625 -0.609375 1.96875 -0.609375q1.53125 0 3.125 0.984375l-1.046875 2.828125q-1.125 -0.671875 -2.234375 -0.671875q-1.0 0 -1.796875 0.609375q-0.796875 0.59375 -1.140625 1.65625q-0.5 1.625 -0.5 3.5625l0 9.40625l-3.046875 0zm11.509552 0l0 -24.812496l3.046875 0l0 24.812496l-3.046875 0zm19.418243 0l0 -2.265625q-1.703125 2.671875 -5.015625 2.671875q-2.15625 0 -3.953125 -1.1875q-1.796875 -1.1875 -2.796875 -3.296875q-0.984375 -2.125 -0.984375 -4.890625q0 -2.6875 0.890625 -4.875q0.90625 -2.203125 2.6875 -3.359375q1.796875 -1.171875 4.015625 -1.171875q1.625 0 2.890625 0.6875q1.28125 0.6875 2.0625 1.78125l0 -8.906246l3.03125 0l0 24.812496l-2.828125 0zm-9.625 -8.96875q0 3.453125 1.453125 5.171875q1.453125 1.703125 3.4375 1.703125q2.0 0 3.390625 -1.625q1.40625 -1.640625 1.40625 -5.0q0 -3.6875 -1.421875 -5.40625q-1.421875 -1.734375 -3.515625 -1.734375q-2.015625 0 -3.390625 1.65625q-1.359375 1.65625 -1.359375 5.234375zm19.24292 16.265625l-2.1875 0q5.0625 -8.125 5.0625 -16.265625q0 -3.1875 -0.71875 -6.3125q-0.578125 -2.53125 -1.609375 -4.875q-0.671875 -1.515625 -2.734375 -5.078121l2.1875 0q3.1875 4.249996 4.703125 8.531246q1.296875 3.6875 1.296875 7.71875q0 4.5625 -1.75 8.828125q-1.75 4.265625 -4.25 7.453125z" fill-rule="nonzero"/><path fill="#000000" fill-opacity="0.0" d="m156.44095 383.99896l455.11813 0" fill-rule="evenodd"/><path stroke="#000000" stroke-width="4.0" stroke-linejoin="round" stroke-linecap="butt" d="m171.60095 383.99896l424.7981 0" fill-rule="evenodd"/><path fill="#000000" stroke="#000000" stroke-width="4.0" stroke-linecap="butt" d="m158.44095 383.99896c0 -3.6340332 2.9459686 -6.5799866 6.580002 -6.5799866c3.6340332 0 6.5799866 2.9459534 6.5799866 6.5799866c0 3.6340332 -2.9459534 6.580017 -6.5799866 6.580017c-3.6340332 0 -6.580002 -2.945984 -6.580002 -6.580017z" fill-rule="nonzero"/><path fill="#000000" stroke="#000000" stroke-width="4.0" stroke-linecap="butt" d="m609.5591 383.99896c0 3.6340332 -2.945984 6.580017 -6.580017 6.580017c-3.6340332 0 -6.580017 -2.945984 -6.580017 -6.580017c0 -3.6340332 2.945984 -6.5799866 6.580017 -6.5799866c3.6340332 0 6.580017 2.9459534 6.580017 6.5799866z" fill-rule="nonzero"/></g></svg>